<svg width="118" height="100" viewBox="0 0 118 100" fill="none" xmlns="http://www.w3.org/2000/svg">
<path d="M24.15 36.1782C40.4698 45.6252 37.5205 72.9031 19.7587 72.7986C12.0981 72.7536 5.50214 66.9805 2.59321 59.6325C-4.12434 42.6616 10.1385 28.0645 24.15 36.1782Z" fill="#FAC663" fill-opacity="0.15"/>
<path d="M40.9479 39.6569C21.301 39.5413 15.6137 6.28787 34.3114 0.936338C42.8301 -1.50104 52.4651 4.52425 55.5069 15.4528C58.9199 27.7021 51.993 39.7219 40.9479 39.6569Z" fill="#FAC663" fill-opacity="0.15"/>
<path d="M45.653 98.8171C48.3859 98.0821 53.2312 97.6268 58.3003 97.5867C63.6586 97.5401 69.266 97.9555 72.8896 98.9773C82.6763 101.754 96.0535 95.2541 93.2072 81.5747C90.5745 68.9285 80.8438 69.5907 78.6142 57.6075C76.3679 45.4967 67.3961 39.6055 58.639 40.0103C50.5341 40.3862 42.6143 46.1574 40.3994 57.3854C38.0423 69.3499 28.3402 68.5665 25.5629 81.1768C22.5451 94.8327 35.8732 101.454 45.653 98.8171Z" fill="#FAC663" fill-opacity="0.15"/>
<path d="M75.5259 39.8615C69.9686 39.8288 65.2147 36.587 62.5915 31.6527C54.7933 16.9806 67.8613 -3.19057 82.6187 1.23257C101.284 6.81897 95.162 39.977 75.5259 39.8615Z" fill="#FAC663" fill-opacity="0.15"/>
<path d="M84.2746 62.3017C78.0565 46.8961 93.1201 28.2113 107.366 34.202C124.527 41.4174 116.759 72.0563 97.8447 71.945C91.7745 71.9093 86.638 68.1581 84.2746 62.3017Z" fill="#FAC663" fill-opacity="0.15"/>
</svg>
